HIERARCHY
ROOT root
{
	OFFSET 0.000000 0.000000 0.000000
	CHANNELS 6 Xposition Yposition Zposition Zrotation Yrotation Xrotation
	JOINT lhip
	{
		OFFSET 0.058581 -0.082280 -0.017664
		CHANNELS 3 Zrotation Yrotation Xrotation
		JOINT lknee
		{
			OFFSET 0.043451 -0.386469 0.008037
			CHANNELS 3 Zrotation Yrotation Xrotation
			JOINT lankle
			{
				OFFSET -0.014790 -0.426874 -0.037428
				CHANNELS 3 Zrotation Yrotation Xrotation
				JOINT ltoe
				{
					OFFSET 0.041054 -0.060286 0.122042
					CHANNELS 3 Zrotation Yrotation Xrotation
					End Site
					{
						OFFSET 0.000000 0.000000 0.000000
					}
				}
			}
		}
	}
	JOINT rhip
	{
		OFFSET -0.060310 -0.090513 -0.013543
		CHANNELS 3 Zrotation Yrotation Xrotation
		JOINT rknee
		{
			OFFSET -0.043257 -0.383688 -0.004843
			CHANNELS 3 Zrotation Yrotation Xrotation
			JOINT rankle
			{
				OFFSET 0.019056 -0.420046 -0.034562
				CHANNELS 3 Zrotation Yrotation Xrotation
				JOINT rtoe
				{
					OFFSET -0.034840 -0.062106 0.130323
					CHANNELS 3 Zrotation Yrotation Xrotation
					End Site
					{
						OFFSET 0.000000 0.000000 0.000000
					}
				}
			}
		}
	}
	JOINT lowerback
	{
		OFFSET 0.004439 0.124404 -0.038385
		CHANNELS 3 Zrotation Yrotation Xrotation
		JOINT upperback
		{
			OFFSET 0.004488 0.137956 0.026820
			CHANNELS 3 Zrotation Yrotation Xrotation
			JOINT chest
			{
				OFFSET -0.002265 0.056032 0.002855
				CHANNELS 3 Zrotation Yrotation Xrotation
				JOINT lowerneck
				{
					OFFSET -0.013390 0.211636 -0.033468
					CHANNELS 3 Zrotation Yrotation Xrotation
					JOINT upperneck
					{
						OFFSET 0.010113 0.088937 0.050410
						CHANNELS 3 Zrotation Yrotation Xrotation
						End Site
						{
							OFFSET 0.000000 0.000000 0.000000
						}
					}
				}
				JOINT lclavicle
				{
					OFFSET 0.071702 0.114000 -0.018898
					CHANNELS 3 Zrotation Yrotation Xrotation
					JOINT lshoulder
					{
						OFFSET 0.122921 0.045205 -0.019046
						CHANNELS 3 Zrotation Yrotation Xrotation
						JOINT lelbow
						{
							OFFSET 0.255332 -0.015649 -0.022946
							CHANNELS 3 Zrotation Yrotation Xrotation
							JOINT lwrist
							{
								OFFSET 0.265709 0.012698 -0.007375
								CHANNELS 3 Zrotation Yrotation Xrotation
								End Site
								{
									OFFSET 0.000000 0.000000 0.000000
								}
							}
						}
					}
				}
				JOINT rclavicle
				{
					OFFSET -0.082954 0.112472 -0.023707
					CHANNELS 3 Zrotation Yrotation Xrotation
					JOINT rshoulder
					{
						OFFSET -0.113228 0.046853 -0.008472
						CHANNELS 3 Zrotation Yrotation Xrotation
						JOINT relbow
						{
							OFFSET -0.260127 -0.014369 -0.031269
							CHANNELS 3 Zrotation Yrotation Xrotation
							JOINT rwrist
							{
								OFFSET -0.269108 0.006794 -0.006027
								CHANNELS 3 Zrotation Yrotation Xrotation
								End Site
								{
									OFFSET 0.000000 0.000000 0.000000
								}
							}
						}
					}
				}
			}
		}
	}
}
MOTION
Frames: 5
Frame Time: 0.033333
-0.123491 -0.022011 0.210730 -172.957291 41.837346 -18.075253 23.209468 16.138823 -9.770764 -16.587007 2.787007 38.934963 -1.658259 16.699469 5.805941 0.000000 -0.000000 0.000000 -1.701501 0.912664 -11.966243 8.452144 -4.866342 116.774664 8.861210 -13.391279 4.770396 0.000000 -0.000000 0.000000 -6.976010 -13.595023 25.893553 -0.283752 -9.405363 -5.405533 -1.409299 -8.275324 0.651275 -8.716081 19.497385 -2.925669 -10.646868 31.315261 -4.906686 0.902233 -9.316054 -3.683859 -0.558251 5.783313 -20.816321 7.501027 -22.464869 8.926597 -29.322227 -2.279650 28.867359 -0.291407 -5.040194 -14.476009 28.228992 -20.957288 4.520539 -0.772454 19.811137 22.065895 33.062618 -9.373988 40.457650 
-0.124018 -0.021267 0.211276 -172.972371 41.746666 -18.703768 23.365885 16.417036 -9.095641 -15.534157 3.502647 39.497976 -1.898977 14.888113 5.141997 0.000000 -0.000000 0.000000 -1.855447 1.377284 -10.980369 7.447876 -4.474992 116.694580 9.514934 -11.699024 4.668342 0.000000 -0.000000 0.000000 -7.151698 -13.380643 27.103922 -0.339905 -9.639471 -5.506125 -1.165822 -8.295789 -0.152712 -7.807922 20.220907 -2.567468 -10.315488 30.941152 -3.628326 3.008636 -9.264329 -4.588420 -3.919519 6.370964 -21.473536 8.411622 -23.319578 10.652297 -30.251999 -2.182877 28.587105 -0.931475 -4.704931 -14.320739 29.478973 -21.451116 2.900651 -1.232237 19.864565 22.972502 33.962951 -9.928411 40.676673 
-0.123964 -0.021209 0.211267 -172.977539 41.747054 -18.683290 23.373084 16.357559 -9.114638 -15.599544 3.512931 39.456285 -1.860018 14.987680 5.183565 0.000000 -0.000000 0.000000 -1.863206 1.387664 -11.020827 7.496213 -4.534869 116.693340 9.452317 -11.787879 4.677866 0.000000 -0.000000 0.000000 -7.163761 -13.368030 27.034909 -0.296865 -9.615786 -5.497057 -1.185493 -8.246281 -0.077898 -7.798173 20.278793 -2.501568 -10.442553 30.774555 -3.762063 2.855325 -9.333471 -4.532702 -3.747699 6.315214 -21.435221 8.434637 -23.273321 10.425902 -30.246755 -2.142686 28.673958 -0.880247 -4.831553 -14.365261 29.387125 -21.447626 3.060983 -1.201126 19.984684 23.059770 33.964804 -9.905270 40.441574 
-0.123953 -0.021206 0.211264 -172.978767 41.746767 -18.683409 23.374026 16.355733 -9.115422 -15.601019 3.513715 39.455221 -1.859171 14.989753 5.184443 0.000000 -0.000000 0.000000 -1.863569 1.387887 -11.022200 7.498044 -4.536943 116.693549 9.450411 -11.789195 4.678035 0.000000 -0.000000 0.000000 -7.164245 -13.368117 27.031915 -0.294635 -9.615504 -5.493964 -1.185299 -8.245093 -0.076559 -7.798237 20.280737 -2.502289 -10.445787 30.769438 -3.764574 2.850850 -9.333180 -4.531963 -3.744526 6.314187 -21.434016 8.436390 -23.273600 10.418473 -30.245843 -2.141616 28.675436 -0.879160 -4.834807 -14.365956 29.384966 -21.444540 3.064934 -1.200613 19.987190 23.061376 33.964713 -9.904727 40.435599 
-0.123951 -0.021206 0.211263 -172.979143 41.746636 -18.683342 23.374338 16.355222 -9.115785 -15.601359 3.514052 39.455033 -1.859013 14.990211 5.184589 0.000000 -0.000000 0.000000 -1.863691 1.388006 -11.022739 7.498435 -4.537513 116.693668 9.450065 -11.789200 4.678079 0.000000 -0.000000 0.000000 -7.164401 -13.368191 27.030990 -0.293952 -9.615478 -5.493003 -1.185187 -8.244792 -0.076204 -7.798163 20.281416 -2.502662 -10.446597 30.767990 -3.765004 2.849846 -9.332922 -4.531752 -3.744122 6.313907 -21.433735 8.437057 -23.273739 10.416363 -30.245575 -2.141329 28.675722 -0.878941 -4.835677 -14.365975 29.384576 -21.443400 3.065796 -1.200562 19.987774 23.061828 33.964785 -9.904607 40.434041 
